<?xml version="1.0" encoding="UTF-8" standalone="no"?>
<svg xmlns:rdf="http://www.w3.org/1999/02/22-rdf-syntax-ns#" xmlns="http://www.w3.org/2000/svg" height="33.353mm" width="4.6238mm" version="1.1" xmlns:cc="http://creativecommons.org/ns#" xmlns:dc="http://purl.org/dc/elements/1.1/" viewBox="0 0 16.383512 118.17879">
 <g stroke="#0e3617" stroke-width="1px" fill="none">
  <path d="m5.587 106.509h4.1038v-0.88388"/>
  <path d="m8.177 106.699v6.4397l-2.0744 0.55582v3.9899h5.6099v-4.0406l-3.6964-0.99044"/>
  <path d="m6.407 115.469h4.9876"/>
  <path d="m1.737 113.829v-1.389h1.7678l6.5321-3.7713h2.5593"/>
  <path d="m16.257 112.379-8.1439-2.1822"/>
  <path d="m5.717 108.279-1.2627 0.12627-0.44194 1.1364"/>
  <path d="m15.877 80.689-0.50507 0.88388h-5.4296l-0.96756-1.6759v-3.3118l0.94545-0.95334"/>
  <path d="m2.367 76.389h3.1567l0.24521-0.91515h4.5057"/>
  <path d="m1.547 81.569 1.4521-0.69448 1.7046-1.7678 1.0102-0.88388 0.12627-2.8411"/>
  <path d="m5.907 72.039 0.75761 0.63135v2.6516"/>
  <path d="m0.597 47.009 1.1161-2.4554"/>
  <path d="m3.587 47.859v-5.1339l-2.0536-0.9375v-3.4375l2.0982-2.0982v-0.98215"/>
  <path d="m1.757 39.509h2.6339l0.95261-1.65"/>
  <path d="m4.387 39.419 1.2404 2.1484"/>
  <path d="m5.507 44.509v1.1161h3.2589l1.0491-1.0491h5.2455v0.95982"/>
  <path d="m7.687 38.529h6.9643"/>
  <path d="m11.177 44.559v-5.9822"/>
  <path d="m3.007 55.849c-0.0446 0.22321-0.40178 0.98214-0.40178 0.98214"/>
  <path d="m2.467 58.219-1.1161 0.66964"/>
  <path d="m1.757 61.159v2.4554h3.9286v-1.1607"/>
  <path d="m15.597 64.419-0.98215 1.25h-1.875l-1.0268-1.0268h-3.9732"/>
  <path d="m9.657 64.509v-8.6161h1.9643v-1.6964"/>
  <path d="m10.637 53.929h2.0982"/>
  <path d="m4.877 54.739 1.7608-1.0166v2.5344l2.7568 0.73867"/>
  <path d="m6.527 58.439v2.9018h7.3214"/>
  <path d="m9.747 59.249h1.875v-1.7857"/>
  <path d="m8.317 56.699v4.4196"/>
  <path d="m0.857 29.159 1.8304-2.5"/>
  <path d="m0.277 22.329 1.2054 0.80358"/>
  <path d="m1.527 18.529h1.0268v1.2946"/>
  <path d="m9.787 29.909 1.468-2.5426h3.5767"/>
  <path d="m12.867 27.459v-5.8036h-6.2946v2.9018"/>
  <path d="m5.597 24.689v2.0536h4.1518v-5.0893"/>
  <path d="m3.497 24.559h12.321"/>
  <path d="m4.517 20.629 2.2545-2.2545h6.8527"/>
  <path d="m7.687 12.999v-4.4643"/>
  <path d="m4.437 10.669h7.0982"/>
  <path d="m4.387 8.579h6.25"/>
  <path d="m9.517 5.579v2.5893"/>
  <path d="m5.767 8.399v-1.875h-4.1071v5.3572"/>
  <path d="m6.217 5.449h5.3026"/>
  <path d="m13.937 11.429v-4.4643l-2.6817-1.5845"/>
  <path d="m7.597-0.001v4.9554"/>
  <path d="m0.637 4.909v-1.2054h14.196"/>
  <path d="m1.677 96.599v2.8284h3.8891l0.88388-0.88388v-2.0771h-0.83968v-0.83969h-3.0052v0.92808z"/>
  <path d="m10.557 95.939v3.7123h4.0659l0.99437-0.99437v-1.8782l-1.3148-1.3148h-3.7013z"/>
  <path d="m5.607 92.709v-3.2704h5.1707v3.2704z"/>
 </g>
</svg>
