<?xml version="1.0" encoding="UTF-8" standalone="no"?>
<svg
   xmlns:dc="http://purl.org/dc/elements/1.1/"
   xmlns:cc="http://creativecommons.org/ns#"
   xmlns:rdf="http://www.w3.org/1999/02/22-rdf-syntax-ns#"
   xmlns:svg="http://www.w3.org/2000/svg"
   xmlns="http://www.w3.org/2000/svg"
   xmlns:sodipodi="http://sodipodi.sourceforge.net/DTD/sodipodi-0.dtd"
   xmlns:inkscape="http://www.inkscape.org/namespaces/inkscape"
   height="33.353mm"
   width="4.6238mm"
   version="1.1"
   viewBox="0 0 16.383512 118.17879"
   id="svg3470"
   inkscape:version="0.91 r13725"
   sodipodi:docname="side2.svg">
  <metadata
     id="metadata3572">
    <rdf:RDF>
      <cc:Work
         rdf:about="">
        <dc:format>image/svg+xml</dc:format>
        <dc:type
           rdf:resource="http://purl.org/dc/dcmitype/StillImage" />
      </cc:Work>
    </rdf:RDF>
  </metadata>
  <defs
     id="defs3570" />
  <sodipodi:namedview
     pagecolor="#ffffff"
     bordercolor="#666666"
     borderopacity="1"
     objecttolerance="10"
     gridtolerance="10"
     guidetolerance="10"
     inkscape:pageopacity="0"
     inkscape:pageshadow="2"
     inkscape:window-width="1600"
     inkscape:window-height="835"
     id="namedview3568"
     showgrid="false"
     inkscape:zoom="5.5254732"
     inkscape:cx="8.1917713"
     inkscape:cy="59.089962"
     inkscape:window-x="0"
     inkscape:window-y="0"
     inkscape:window-maximized="1"
     inkscape:current-layer="svg3470" />
  <g
     stroke="#0e3617"
     stroke-width="1px"
     fill="none"
     id="g3472">
    <path
       d="m5.587 106.509h4.1038v-0.88388"
       id="path3474" />
    <path
       d="m8.177 106.699v6.4397l-2.0744 0.55582v3.9899h5.6099v-4.0406l-3.6964-0.99044"
       id="path3476" />
    <path
       d="m6.407 115.469h4.9876"
       id="path3478" />
    <path
       d="m1.737 113.829v-1.389h1.7678l6.5321-3.7713h2.5593"
       id="path3480" />
    <path
       d="m16.257 112.379-8.1439-2.1822"
       id="path3482" />
    <path
       d="m5.717 108.279-1.2627 0.12627-0.44194 1.1364"
       id="path3484" />
    <path
       d="m15.877 80.689-0.50507 0.88388h-5.4296l-0.96756-1.6759v-3.3118l0.94545-0.95334"
       id="path3486" />
    <path
       d="m2.367 76.389h3.1567l0.24521-0.91515h4.5057"
       id="path3488" />
    <path
       d="m1.547 81.569 1.4521-0.69448 1.7046-1.7678 1.0102-0.88388 0.12627-2.8411"
       id="path3490" />
    <path
       d="m5.907 72.039 0.75761 0.63135v2.6516"
       id="path3492" />
    <path
       d="m0.597 47.009 1.1161-2.4554"
       id="path3494" />
    <path
       d="m3.587 47.859v-5.1339l-2.0536-0.9375v-3.4375l2.0982-2.0982v-0.98215"
       id="path3496" />
    <path
       d="m1.757 39.509h2.6339l0.95261-1.65"
       id="path3498" />
    <path
       d="m4.387 39.419 1.2404 2.1484"
       id="path3500" />
    <path
       d="m5.507 44.509v1.1161h3.2589l1.0491-1.0491h5.2455v0.95982"
       id="path3502" />
    <path
       d="m7.687 38.529h6.9643"
       id="path3504" />
    <path
       d="m11.177 44.559v-5.9822"
       id="path3506" />
    <path
       d="m3.007 55.849c-0.0446 0.22321-0.40178 0.98214-0.40178 0.98214"
       id="path3508" />
    <path
       d="m2.467 58.219-1.1161 0.66964"
       id="path3510" />
    <path
       d="m1.757 61.159v2.4554h3.9286v-1.1607"
       id="path3512" />
    <path
       d="m15.597 64.419-0.98215 1.25h-1.875l-1.0268-1.0268h-3.9732"
       id="path3514" />
    <path
       d="m9.657 64.509v-8.6161h1.9643v-1.6964"
       id="path3516" />
    <path
       d="m10.637 53.929h2.0982"
       id="path3518" />
    <path
       d="m4.877 54.739 1.7608-1.0166v2.5344l2.7568 0.73867"
       id="path3520" />
    <path
       d="m6.527 58.439v2.9018h7.3214"
       id="path3522" />
    <path
       d="m9.747 59.249h1.875v-1.7857"
       id="path3524" />
    <path
       d="m8.317 56.699v4.4196"
       id="path3526" />
    <path
       d="m0.857 29.159 1.8304-2.5"
       id="path3528" />
    <path
       d="m0.277 22.329 1.2054 0.80358"
       id="path3530" />
    <path
       d="m1.527 18.529h1.0268v1.2946"
       id="path3532" />
    <path
       d="m9.787 29.909 1.468-2.5426h3.5767"
       id="path3534" />
    <path
       d="m12.867 27.459v-5.8036h-6.2946v2.9018"
       id="path3536" />
    <path
       d="m5.597 24.689v2.0536h4.1518v-5.0893"
       id="path3538" />
    <path
       d="m3.497 24.559h12.321"
       id="path3540" />
    <path
       d="m4.517 20.629 2.2545-2.2545h6.8527"
       id="path3542" />
    <path
       d="m7.687 12.999v-4.4643"
       id="path3544" />
    <path
       d="m4.437 10.669h7.0982"
       id="path3546" />
    <path
       d="m4.387 8.579h6.25"
       id="path3548" />
    <path
       d="m9.517 5.579v2.5893"
       id="path3550" />
    <path
       d="m5.767 8.399v-1.875h-4.1071v5.3572"
       id="path3552" />
    <path
       d="m6.217 5.449h5.3026"
       id="path3554" />
    <path
       d="m13.937 11.429v-4.4643l-2.6817-1.5845"
       id="path3556" />
    <path
       d="m7.597-0.001v4.9554"
       id="path3558" />
    <path
       d="m0.637 4.909v-1.2054h14.196"
       id="path3560" />
    <path
       d="m1.677 96.599v2.8284h3.8891l0.88388-0.88388v-2.0771h-0.83968v-0.83969h-3.0052v0.92808z"
       id="path3562" />
    <path
       d="m10.557 95.939v3.7123h4.0659l0.99437-0.99437v-1.8782l-1.3148-1.3148h-3.7013z"
       id="path3564" />
    <path
       d="m5.607 92.709v-3.2704h5.1707v3.2704z"
       id="path3566" />
  </g>
  <path
     style="fill:#ffffff"
     d=""
     id="path3574"
     inkscape:connector-curvature="0"
     transform="matrix(0.99999809,0,0,0.99999809,0,-4.577628e-4)" />
  <path
     style="fill:#ffffff"
     d=""
     id="path3576"
     inkscape:connector-curvature="0"
     transform="matrix(0.99999809,0,0,0.99999809,0,-4.577628e-4)" />
  <path
     style="fill:#ffffff"
     d="m 0.19245642,4.0901474 0,-0.8144099 3.52910948,0 3.5291095,0 0,-1.6288197 c 0,-1.50816648 0.026812,-1.6288198 0.36196,-1.6288198 0.3351481,0 0.3619599,0.12065332 0.3619599,1.6288198 l 0,1.6288197 3.3481297,0 3.348129,0 0,0.45245 0,0.4524499 -3.348129,0 c -3.2274763,0 -3.3481297,0.013044 -3.3481297,0.36196 0,0.2413065 -0.1206533,0.3619599 -0.3619599,0.3619599 -0.2413066,0 -0.36196,-0.1206534 -0.36196,-0.3619599 0,-0.3477655 -0.1206533,-0.36196 -3.0766595,-0.36196 -2.9560063,0 -3.0766596,0.014194 -3.0766596,0.36196 0,0.2654373 -0.12065333,0.3619599 -0.45244995,0.3619599 -0.41558364,0 -0.45244993,-0.066359 -0.45244993,-0.8144099 z"
     id="path3578"
     inkscape:connector-curvature="0"
     transform="matrix(0.99999809,0,0,0.99999809,0,-4.577628e-4)" />
  <path
     style="fill:#ffffff"
     d="m 7.2506754,11.962776 0,-0.9049 -1.3573498,0 c -1.2366964,0 -1.3573498,-0.03217 -1.3573498,-0.361959 0,-0.329786 0.1206534,-0.36196 1.3573498,-0.36196 l 1.3573498,0 0,-0.6334304 0,-0.6334299 -1.3573498,0 c -1.3271864,0 -1.3573498,-0.010055 -1.3573498,-0.4524499 0,-0.3317966 0.096523,-0.4524499 0.36196,-0.4524499 0.2937737,0 0.3619599,-0.1206534 0.3619599,-0.640476 l 0,-0.640476 -1.5835748,0.052291 -1.5835747,0.052291 -0.050498,2.3979847 c -0.04735,2.2484793 -0.072737,2.3979843 -0.4072049,2.3979843 -0.3396138,0 -0.356707,-0.134423 -0.356707,-2.8051893 l 0,-2.8051896 2.4432296,0 2.4432297,0 0,0.9953899 0,0.9953899 1.4478398,0 1.4478398,0 0,-1.1763699 0,-1.1763698 -1.3573498,0 c -1.2366965,0 -1.3573498,-0.032174 -1.3573498,-0.36196 0,-0.3462004 0.1162262,-0.3613817 2.6694546,-0.3486786 l 2.6694548,0.013281 1.26686,0.7633949 1.266859,0.7633949 0.0505,2.3904734 c 0.04828,2.285594 0.03464,2.390473 -0.310971,2.390473 -0.337855,0 -0.364801,-0.138632 -0.412458,-2.1220647 L 13.494485,7.1757061 12.318921,6.4925817 C 11.614345,6.0831496 10.90738,5.8094572 10.554366,5.8094572 l -0.5889909,0 0,1.1763698 c 0,0.9250088 0.058006,1.1763699 0.2714699,1.1763699 0.168915,0 0.27147,0.1709254 0.27147,0.4524499 0,0.4362081 -0.04223,0.4524499 -1.1763699,0.4524499 l -1.1763698,0 0,0.6334299 0,0.6334304 1.6288198,0 c 1.5081659,0 1.6288199,0.02681 1.6288199,0.36196 0,0.335148 -0.120654,0.361959 -1.6288199,0.361959 l -1.6288198,0 0,0.9049 c 0,0.844574 -0.030163,0.9049 -0.4524499,0.9049 -0.4222866,0 -0.45245,-0.06033 -0.45245,-0.9049 z"
     id="path3580"
     inkscape:connector-curvature="0"
     transform="matrix(0.99999809,0,0,0.99999809,0,-4.577628e-4)" />
  <path
     style="fill:#ffffff"
     d="M 4.5278377,20.549519 C 4.3283269,20.309124 4.4624382,20.098698 5.4505943,19.10168 l 1.1561947,-1.166564 3.489093,0 3.489093,0 0,0.452449 0,0.45245 -3.336339,0 -3.3363383,0 -0.9608162,0.99539 c -0.5284488,0.547465 -1.0124287,0.99539 -1.0755108,0.99539 -0.063082,0 -0.219742,-0.126574 -0.348133,-0.281276 z"
     id="path3582"
     inkscape:connector-curvature="0"
     transform="matrix(0.99999809,0,0,0.99999809,0,-4.577628e-4)" />
  <path
     style="fill:#ffffff"
     d="m 2.1832361,19.382955 c 0,-0.201089 -0.1206533,-0.36196 -0.2714699,-0.36196 -0.1689147,0 -0.27147,-0.170925 -0.27147,-0.45245 0,-0.396432 0.078425,-0.45245 0.6334299,-0.45245 0.6300785,0 0.6334299,0.0043 0.6334299,0.81441 0,0.693757 -0.053624,0.81441 -0.3619599,0.81441 -0.2413066,0 -0.36196,-0.120653 -0.36196,-0.36196 z"
     id="path3584"
     inkscape:connector-curvature="0"
     transform="matrix(0.99999809,0,0,0.99999809,0,-4.577628e-4)" />
  <path
     style="fill:#ffffff"
     d="M 0.56333698,23.015598 C 0.18609877,22.725676 0.15536075,22.63189 0.35768022,22.38811 c 0.21668502,-0.26109 0.28341833,-0.259714 0.74921528,0.01544 0.4128477,0.243875 0.4773802,0.365517 0.3350242,0.631511 -0.2191722,0.409528 -0.3233966,0.407219 -0.87858272,-0.01946 z"
     id="path3586"
     inkscape:connector-curvature="0"
     transform="matrix(0.99999809,0,0,0.99999809,0,-4.577628e-4)" />
  <path
     style="fill:#ffffff"
     d="M 0.87877619,29.090512 C 0.59606572,28.875709 0.64334422,28.754673 1.4331228,27.671357 c 0.7771733,-1.066025 0.8961401,-1.160395 1.1910244,-0.94477 0.3068399,0.224366 0.2739873,0.314694 -0.5182458,1.424909 -0.4652194,0.651947 -0.8620988,1.182768 -0.8819543,1.179602 -0.019855,-0.0032 -0.1751824,-0.11143 -0.34517091,-0.240586 z"
     id="path3588"
     inkscape:connector-curvature="0"
     transform="matrix(0.99999809,0,0,0.99999809,0,-4.577628e-4)" />
  <path
     style="fill:#ffffff"
     d="m 9.6704485,29.741288 c -0.139151,-0.0905 0.034234,-0.550097 0.5429395,-1.439178 0.741508,-1.295956 0.753417,-1.30626 1.516542,-1.312105 l 0.769165,-0.0059 0,-0.99539 0,-0.995389 -1.17637,0 -1.17637,0 0,1.085879 0,1.08588 -2.4432296,0 -2.4432297,0 0,-1.08588 0,-1.085879 -0.8144099,0 c -0.7480505,0 -0.8144099,-0.03687 -0.8144099,-0.45245 0,-0.439523 0.036196,-0.45245 1.2668599,-0.45245 l 1.2668598,0 0,-1.44784 0,-1.44784 3.5291095,0 3.5291099,0 0,1.44784 0,1.44784 1.266859,0 c 1.230664,0 1.26686,0.01293 1.26686,0.45245 0,0.439522 -0.0362,0.45245 -1.26686,0.45245 l -1.266859,0 0,0.995389 0,0.99539 0.723919,0 c 0.598476,0 0.72392,0.0615 0.72392,0.354914 0,0.32154 -0.148909,0.359831 -1.583574,0.407205 l -1.583575,0.05229 -0.613573,1.040635 c -0.600571,1.018584 -0.806472,1.170877 -1.2196835,0.902129 z m -0.4289933,-4.114524 0,-0.633429 -1.6288198,0 -1.6288198,0 0,0.633429 0,0.63343 1.6288198,0 1.6288198,0 0,-0.63343 z m 0,-2.533719 0,-0.99539 -1.0858799,0 -1.0858798,0 0,0.99539 0,0.99539 1.0858798,0 1.0858799,0 0,-0.99539 z m 3.2576398,0 0,-0.99539 -1.17637,0 -1.17637,0 0,0.99539 0,0.99539 1.17637,0 1.17637,0 0,-0.99539 z"
     id="path3590"
     inkscape:connector-curvature="0"
     transform="matrix(0.99999809,0,0,0.99999809,0,-4.577628e-4)" />
  <path
     style="fill:#ffffff"
     d="m 3.088136,45.391283 0,-2.405528 -0.9953898,-0.488185 -0.9953899,-0.488185 0,-1.84164 0,-1.841641 1.0858798,-1.130831 c 0.6189338,-0.644555 1.0858799,-1.293216 1.0858799,-1.508455 0,-0.256972 0.1156484,-0.377625 0.3619599,-0.377625 0.2884841,0 0.36196,0.120653 0.36196,0.594367 0,0.480638 -0.1904642,0.782466 -0.9953899,1.577393 -1.3367941,1.320188 -1.32313,1.62882 0.072113,1.62882 1.0498632,0 1.0745353,-0.01178 1.4930848,-0.712544 0.3860882,-0.64642 0.4569157,-0.689333 0.7632299,-0.462437 0.3277672,0.242788 0.326239,0.268567 -0.052223,0.880931 l -0.3898706,0.630824 0.5046727,0.919105 c 0.4339435,0.790292 0.4666267,0.943854 0.2332031,1.095701 -0.4038981,0.262744 -0.4234345,0.249093 -0.9048999,-0.632271 l -0.4448901,-0.81441 -1.1349047,0 -1.1349048,0 0,0.793391 c 0,0.792062 0.00167,0.794066 0.9953898,1.197389 l 0.9953899,0.403999 0,2.69368 0,2.69368 -0.45245,0 -0.4524499,0 0,-2.405528 z"
     id="path3592"
     inkscape:connector-curvature="0"
     transform="matrix(0.99999809,0,0,0.99999809,0,-4.577628e-4)" />
  <path
     style="fill:#ffffff"
     d=""
     id="path3594"
     inkscape:connector-curvature="0"
     transform="matrix(0.99999809,0,0,0.99999809,0,-4.577628e-4)" />
  <path
     style="fill:#ffffff"
     d="M 0.56588045,46.902827 C 0.34602752,46.763712 0.37442968,46.577662 0.74979552,45.698086 1.2111109,44.617109 1.3896772,44.443586 1.7837727,44.693314 c 0.1835368,0.116303 0.1296766,0.388731 -0.2498813,1.263918 -0.5072889,1.16971 -0.54917042,1.210622 -0.96801095,0.945595 z"
     id="path3596"
     inkscape:connector-curvature="0"
     transform="matrix(0.99999809,0,0,0.99999809,0,-4.577628e-4)" />
  <path
     style="fill:#ffffff"
     d="m 5.0789157,45.263092 c 0,-0.651528 0.045245,-0.72392 0.45245,-0.72392 0.3317966,0 0.4524499,0.09652 0.4524499,0.36196 0,0.328962 0.1206533,0.36196 1.3234901,0.36196 1.2342979,0 1.358545,-0.03659 1.8436595,-0.54294 0.3365733,-0.351307 0.6998515,-0.54294 1.0292498,-0.54294 l 0.50908,0 0,-2.62421 0,-2.624209 -1.4478398,0 c -1.4237092,0 -1.4478398,-0.0075 -1.4478398,-0.45245 l 0,-0.45245 3.3481296,0 3.348129,0 0,0.45245 c 0,0.444909 -0.02413,0.45245 -1.447839,0.45245 l -1.44784,0 0,2.624209 0,2.62421 1.90029,0 1.900289,0 0,0.63343 c 0,0.512776 -0.06894,0.63343 -0.36196,0.63343 -0.199078,0 -0.36196,-0.08144 -0.36196,-0.18098 0,-0.111599 -0.924547,-0.18098 -2.411682,-0.18098 -2.3384599,0 -2.4245876,0.01374 -2.8367369,0.45245 -0.4026252,0.428575 -0.5284403,0.45245 -2.384287,0.45245 l -1.9592324,0 0,-0.72392 z"
     id="path3598"
     inkscape:connector-curvature="0"
     transform="matrix(0.99999809,0,0,0.99999809,0,-4.577628e-4)" />
  <path
     style="fill:#ffffff"
     d="m 9.1257178,59.19855 c 0,-0.945621 0.030503,-1.332465 0.067785,-0.859655 0.037282,0.47281 0.037282,1.246499 0,1.71931 -0.037282,0.47281 -0.067785,0.08597 -0.067785,-0.859655 z"
     id="path3600"
     inkscape:connector-curvature="0"
     transform="matrix(0.99999809,0,0,0.99999809,0,-4.577628e-4)" />
  <path
     style="fill:#ffffff"
     d="m 12.046645,65.532849 c -0.512125,-0.534543 -0.549035,-0.54294 -2.3865996,-0.54294 -1.7457767,0 -1.86643,-0.0234 -1.86643,-0.36196 0,-0.301633 0.1206533,-0.36196 0.7239199,-0.36196 l 0.7239199,0 0,-1.26686 0,-1.26686 -1.5383298,0 -1.5383298,0 0,-1.628819 c 0,-1.495473 0.028956,-1.62882 0.353691,-1.62882 0.3107169,0 0.360193,0.148428 0.4072049,1.221615 0.051171,1.168132 0.073322,1.221615 0.5059639,1.221615 0.451211,0 0.4525904,-0.0053 0.5037147,-1.935366 l 0.051265,-1.935366 -0.6846945,-0.19014 C 6.9253581,56.752412 6.5154443,56.666394 6.3910206,56.665839 6.234814,56.665142 6.1647956,56.3223 6.1647956,55.558136 l 0,-1.106695 -0.4674877,0.30631 C 5.2549708,55.047581 5.2166797,55.046267 4.9855717,54.733321 4.6945948,54.339305 4.7030713,54.330024 6.0290606,53.590812 l 1.0406349,-0.580134 0,1.452274 0,1.452274 0.9779989,0.284312 c 1.2510702,0.363696 1.1937608,0.376112 1.1937608,-0.258628 0,-0.537455 0.010055,-0.54294 0.9953898,-0.54294 0.985335,0 0.99539,-0.0055 0.99539,-0.54294 0,-0.36196 -0.09049,-0.54294 -0.27147,-0.54294 -0.150817,0 -0.27147,-0.160871 -0.27147,-0.36196 0,-0.318086 0.120653,-0.361959 0.99539,-0.361959 0.854189,0 0.99539,0.04835 0.99539,0.340852 0,0.188647 -0.161631,0.383119 -0.36196,0.435506 -0.302197,0.07903 -0.36196,0.24686 -0.36196,1.016498 l 0,0.921843 -0.9049,0 -0.9049,0 0,1.26686 0,1.26686 0.54294,0 c 0.499849,0 0.54294,-0.05027 0.54294,-0.63343 0,-0.512777 0.06895,-0.63343 0.36196,-0.63343 0.321742,0 0.36196,0.120653 0.36196,1.08588 l 0,1.08588 -0.9049,0 -0.9049,0 0,0.63343 0,0.633429 1.8098,0 c 1.689146,0 1.8098,0.02413 1.8098,0.36196 0,0.33783 -0.120654,0.36196 -1.8098,0.36196 l -1.8098,0 0,1.26686 0,1.26686 0.873353,0 c 0.697574,0 0.958902,0.09106 1.298407,0.45245 0.603847,0.642766 1.866465,0.63927 2.541063,-0.007 0.423918,-0.40614 0.506392,-0.427201 0.710383,-0.181406 0.192196,0.231581 0.149945,0.384064 -0.252681,0.911935 -0.461865,0.605536 -0.534101,0.633856 -1.616766,0.633856 -1.022975,0 -1.183937,-0.05285 -1.653469,-0.54294 z M 9.2414552,59.116742 c 0,-1.334618 -0.056993,-1.711137 -0.27147,-1.793439 -0.2299282,-0.08823 -0.27147,0.167288 -0.27147,1.669783 0,0.975677 0.05208,1.826037 0.1157331,1.88969 0.3018518,0.301852 0.4272069,-0.216355 0.4272069,-1.766034 z"
     id="path3602"
     inkscape:connector-curvature="0"
     transform="matrix(0.99999809,0,0,0.99999809,0,-4.577628e-4)" />
  <path
     style="fill:#ffffff"
     d="m 1.2783363,62.637169 c 0,-1.423709 0.00754,-1.44784 0.4524499,-1.44784 0.4277709,0 0.4524499,0.05429 0.4524499,0.99539 l 0,0.99539 1.5383298,0 c 1.4176764,0 1.5383298,-0.02839 1.5383298,-0.36196 0,-0.265437 0.1206534,-0.36196 0.4524499,-0.36196 0.4155836,0 0.45245,0.06636 0.45245,0.81441 l 0,0.81441 -2.4432297,0 -2.4432296,0 0,-1.44784 z"
     id="path3604"
     inkscape:connector-curvature="0"
     transform="matrix(0.99999809,0,0,0.99999809,0,-4.577628e-4)" />
  <path
     style="fill:#ffffff"
     d=""
     id="path3606"
     inkscape:connector-curvature="0"
     transform="matrix(0.99999809,0,0,0.99999809,0,-4.577628e-4)" />
  <path
     style="fill:#ffffff"
     d=""
     id="path3608"
     inkscape:connector-curvature="0"
     transform="matrix(0.99999809,0,0,0.99999809,0,-4.577628e-4)" />
  <path
     style="fill:#ffffff"
     d="m 1.4870416,58.972903 c -0.325676,-0.325676 -0.2479064,-0.603292 0.2300015,-0.821041 0.342226,-0.155929 0.484957,-0.144161 0.6490104,0.05351 0.3694633,0.445176 -0.4691291,1.177412 -0.8790119,0.767529 z"
     id="path3610"
     inkscape:connector-curvature="0"
     transform="matrix(0.99999809,0,0,0.99999809,0,-4.577628e-4)" />
  <path
     style="fill:#ffffff"
     d=""
     id="path3612"
     inkscape:connector-curvature="0"
     transform="matrix(0.99999809,0,0,0.99999809,0,-4.577628e-4)" />
  <path
     style="fill:#ffffff"
     d=""
     id="path3614"
     inkscape:connector-curvature="0"
     transform="matrix(0.99999809,0,0,0.99999809,0,-4.577628e-4)" />
  <path
     style="fill:#ffffff"
     d="M 2.5640692,56.680324 C 2.184338,56.43988 2.4704721,55.94091 2.988086,55.94091 c 0.4188533,0 0.4381861,0.03526 0.2481,0.45245 -0.2254997,0.494918 -0.2960955,0.525059 -0.6721168,0.286964 z"
     id="path3616"
     inkscape:connector-curvature="0"
     transform="matrix(0.99999809,0,0,0.99999809,0,-4.577628e-4)" />
  <path
     style="fill:#ffffff"
     d=""
     id="path3618"
     inkscape:connector-curvature="0"
     transform="matrix(0.99999809,0,0,0.99999809,0,-4.577628e-4)" />
  <path
     style="fill:#ffffff"
     d="M 9.1022497,80.938431 C 8.5615134,79.954832 8.5175353,79.74832 8.5175353,78.192737 c 0,-1.311237 0.066037,-1.755068 0.2995196,-2.013064 0.2878433,-0.318063 0.2419842,-0.330966 -1.1763698,-0.330966 l -1.4758895,0 0,1.234109 0,1.234108 -1.5835748,1.537583 C 2.8924623,81.494218 1.9149061,82.079519 1.6263524,81.623702 1.3786583,81.232429 1.4176446,81.158301 1.9974252,80.918148 2.2933851,80.795557 3.1485155,80.086238 3.8977148,79.341882 5.0626683,78.184461 5.2598957,77.89911 5.2598957,77.371058 l 0,-0.617451 -1.4478398,0 c -1.3271865,0 -1.4478398,-0.03016 -1.4478398,-0.36196 0,-0.331382 0.1206533,-0.36196 1.4282201,-0.36196 1.3724995,0 1.4326505,-0.01765 1.5417779,-0.45245 0.07332,-0.292129 0.2405922,-0.452449 0.4720696,-0.452449 0.3194247,0 0.3585119,-0.124309 0.3585119,-1.140174 0,-0.649244 -0.094067,-1.234241 -0.2184687,-1.358643 -0.1706383,-0.170638 -0.1520603,-0.284877 0.084856,-0.521794 0.2837802,-0.28378 0.3270113,-0.281889 0.6709187,0.02934 0.3059124,0.276847 0.3675935,0.55572 0.3675935,1.661967 l 0,1.329301 1.5383297,0 c 1.4931198,0 1.5383298,0.01247 1.5383298,0.4244 0,0.23342 -0.1628819,0.571806 -0.3619599,0.751969 -0.3107528,0.281228 -0.36196,0.557413 -0.36196,1.952223 0,1.329998 0.068324,1.735204 0.3767205,2.2342 l 0.3767204,0.609547 2.509966,0 c 2.050236,0 2.537977,-0.05005 2.662894,-0.273266 0.131611,-0.235176 0.200834,-0.238234 0.496633,-0.02194 0.327836,0.23972 0.329354,0.27323 0.03287,0.725716 l -0.310833,0.474391 -2.940223,0 -2.9402227,0 -0.5847146,-1.063596 z"
     id="path3620"
     inkscape:connector-curvature="0"
     transform="matrix(0.99999809,0,0,0.99999809,0,-4.577628e-4)" />
  <path
     style="fill:#ffffff"
     d="m 5.2598957,91.051025 0,-1.990779 2.9861696,0 2.9861697,0 0,1.990779 0,1.99078 -2.9861697,0 -2.9861696,0 0,-1.99078 z m 5.0674393,-0.0057 0,-1.272603 -2.1265147,0.05099 -2.1265147,0.05099 -0.053514,1.221615 -0.053514,1.221615 2.1800286,0 2.1800287,0 0,-1.272603 z"
     id="path3622"
     inkscape:connector-curvature="0"
     transform="matrix(0.99999809,0,0,0.99999809,0,-4.577628e-4)" />
  <path
     style="fill:#ffffff"
     d="m 2.1832361,98.030775 c 0,-0.740797 0.038203,-0.806784 0.497695,-0.859654 0.3563507,-0.041 0.5141191,-0.172912 0.5555272,-0.464471 0.051044,-0.359407 0.1625726,-0.407205 0.9501449,-0.407205 0.7716592,0 0.8923125,0.04894 0.8923125,0.36196 0,0.241306 0.1206534,0.361959 0.36196,0.361959 0.2984582,0 0.3619599,0.120654 0.3619599,0.687724 0,1.003227 -0.2146954,1.122076 -2.0269757,1.122076 l -1.5926238,0 0,-0.802389 z"
     id="path3624"
     inkscape:connector-curvature="0"
     transform="matrix(0.99999809,0,0,0.99999809,0,-4.577628e-4)" />
  <path
     style="fill:#ffffff"
     d="m 1.2783363,98.018754 0,-1.900289 0.4524499,0 c 0.36196,0 0.4524499,-0.09049 0.4524499,-0.45245 l 0,-0.45245 1.8877024,0 c 1.8198286,0 1.8897819,0.01464 1.9455348,0.407205 0.037166,0.261689 0.203348,0.427871 0.4650372,0.465037 0.3794316,0.05389 0.407205,0.14713 0.407205,1.367092 0,1.243397 -0.030023,1.33836 -0.5968008,1.887703 l -0.5968009,0.578442 -2.2083888,0 -2.2083887,0 0,-1.90029 z m 4.3745138,0.695871 c 0.223897,-0.202624 0.3309655,-0.55391 0.3309655,-1.08588 0,-0.665707 -0.055536,-0.78636 -0.3619599,-0.78636 -0.2413066,0 -0.36196,-0.120654 -0.36196,-0.36196 0,-0.321743 -0.1206534,-0.36196 -1.0858798,-0.36196 -1.0376185,0 -1.0858799,0.02011 -1.0858799,0.45245 0,0.361959 -0.09049,0.452449 -0.4524499,0.452449 -0.4277709,0 -0.45245,0.05429 -0.45245,0.99539 l 0,0.99539 1.5693243,0 c 1.2062992,0 1.6458853,-0.06929 1.9002897,-0.299519 z"
     id="path3626"
     inkscape:connector-curvature="0"
     transform="matrix(0.99999809,0,0,0.99999809,0,-4.577628e-4)" />
  <path
     style="fill:#ffffff"
     d="m 10.146355,97.566304 0,-2.533719 2.133318,0 2.133318,0 0.852852,0.865871 c 0.808632,0.820977 0.852851,0.917601 0.852851,1.86356 0,0.916389 -0.05593,1.0523 -0.686305,1.667849 l -0.686306,0.670155 -2.299864,0 -2.299864,0 0,-2.533716 z m 4.736474,1.3293 c 0.230395,-0.208505 0.330965,-0.555677 0.330965,-1.142509 0,-0.687367 -0.09371,-0.932768 -0.507598,-1.329301 -0.471323,-0.451556 -0.620056,-0.486309 -2.081269,-0.486309 l -1.573672,0 0,1.628819 0,1.62882 1.750304,0 c 1.374703,0 1.821327,-0.06427 2.08127,-0.29952 z"
     id="path3628"
     inkscape:connector-curvature="0"
     transform="matrix(0.99999809,0,0,0.99999809,0,-4.577628e-4)" />
  <path
     style="fill:#ffffff"
     d="m 5.6218557,115.70002 0,-2.31702 1.0406348,-0.27036 1.0406349,-0.27037 0.053881,-1.1227 c 0.029635,-0.61749 -0.011488,-1.12271 -0.091383,-1.12271 -0.079895,0 -0.9861608,0.48865 -2.0139242,1.08588 -1.5170137,0.88154 -2.019187,1.08588 -2.668562,1.08588 -0.7325747,0 -0.7999013,0.0381 -0.7999013,0.45245 0,0.36196 -0.09049,0.45245 -0.4524499,0.45245 -0.4155836,0 -0.4524499,-0.0664 -0.4524499,-0.81441 l 0,-0.81441 1.0431697,0 c 0.9628843,0 1.2136015,-0.0984 3.2576395,-1.27879 l 2.2144699,-1.2788 0,-1.25492 0,-1.25493 -1.0858799,0 c -1.0376185,0 -1.0858798,-0.0201 -1.0858798,-0.45245 0,-0.45245 0,-0.45245 1.8097997,-0.45245 1.0858799,0 1.8097998,-0.0724 1.8097998,-0.18098 0,-0.0995 0.2036024,-0.18098 0.4524499,-0.18098 0.3964319,0 0.4524499,0.0784 0.4524499,0.63343 0,0.63008 -0.0043,0.63343 -0.8144099,0.63343 l -0.8144098,0 0,0.99539 c 0,0.54747 0.061081,0.99486 0.1357349,0.9942 0.074654,-6.6e-4 0.380058,-0.163 0.6786749,-0.36077 0.4158406,-0.2754 0.8500969,-0.35985 1.8550449,-0.36076 1.279243,-0.001 1.312105,0.0101 1.312105,0.45125 0,0.43597 -0.04264,0.45245 -1.17023,0.45245 -1.063909,0 -2.4493698,0.40694 -2.4493698,0.71943 0,0.0602 1.6695948,0.55088 3.7102098,1.0904 3.451182,0.91248 3.702315,1.00674 3.597117,1.35012 -0.0622,0.20304 -0.126628,0.38603 -0.143171,0.40664 -0.01654,0.0206 -1.655606,-0.40521 -3.642362,-0.94627 -1.986756,-0.54106 -3.6733645,-0.98549 -3.7480188,-0.98762 -0.074654,-0.002 -0.1357349,0.34925 -0.1357349,0.78086 l 0,0.78474 1.0406348,0.28564 c 0.5723489,0.15711 1.3867589,0.3772 1.8097999,0.4891 l 0.769165,0.20345 0,2.34577 0,2.34576 -3.2576398,0 -3.2576395,0 0,-2.31702 z m 5.6103793,0.86918 0,-0.72392 -2.3527398,0 -2.3527397,0 0,0.72392 0,0.72392 2.3527397,0 2.3527398,0 0,-0.72392 z m 0,-2.03922 c 0,-0.5763 -0.03037,-0.59934 -1.191062,-0.90377 -1.1009297,-0.28875 -1.2618504,-0.29063 -2.1265144,-0.0249 -0.5144993,0.15812 -1.0372544,0.31794 -1.1616781,0.35515 -0.1244237,0.0372 -0.226225,0.31454 -0.226225,0.61628 l 0,0.54862 2.3527397,0 2.3527398,0 0,-0.59138 z"
     id="path3630"
     inkscape:connector-curvature="0"
     transform="matrix(0.99999809,0,0,0.99999809,0,-4.577628e-4)" />
  <path
     style="fill:#ffffff"
     d=""
     id="path3632"
     inkscape:connector-curvature="0"
     transform="matrix(0.99999809,0,0,0.99999809,0,-4.577628e-4)" />
  <path
     style="fill:#ffffff"
     d="m 3.8704455,109.3955 c -0.1561829,-0.0637 -0.1631813,-0.23004 -0.026209,-0.62296 0.2109529,-0.60514 0.6316693,-0.89038 1.3132713,-0.89038 0.374651,0 0.4643478,0.0874 0.4643478,0.45245 0,0.35862 -0.091303,0.45245 -0.4402541,0.45245 -0.281307,0 -0.4817305,0.13068 -0.5551358,0.36196 -0.1121193,0.35326 -0.3244647,0.42249 -0.7560203,0.24648 z"
     id="path3634"
     inkscape:connector-curvature="0"
     transform="matrix(0.99999809,0,0,0.99999809,0,-4.577628e-4)" />
</svg>
