<?xml version="1.0" encoding="UTF-8" standalone="no"?>
<svg xmlns:rdf="http://www.w3.org/1999/02/22-rdf-syntax-ns#" xmlns="http://www.w3.org/2000/svg" height="32.625mm" width="4.3563mm" version="1.1" xmlns:cc="http://creativecommons.org/ns#" xmlns:dc="http://purl.org/dc/elements/1.1/" viewBox="0 0 15.435705 115.59903">
 <g stroke="#003f07" stroke-width="1px" fill="none">
  <path d="m0.5436 1.7514 1.0714-1.25h12.768v1.6071"/>
  <path d="m8.6636 0.5014v5.3571l1.7259 0.99646"/>
  <path d="m6.3436 0.6814v2.8572"/>
  <path d="m3.9336 6.5714 1.5179-0.80357v-1.9643"/>
  <path d="m12.8636 3.4414h-10.446v5.3571h10.446z"/>
  <path d="m6.4336 16.5714h1.25v4.8214l-6.6071 5.8036"/>
  <path d="m14.2036 19.0714h-12.679"/>
  <path d="m6.6136 22.5514h4.0179v1.6964l-3.3036 3.3036"/>
  <path d="m9.6836 33.0214-0.44194 2.7779h2.0203l1.0733-1.5152"/>
  <path d="m14.8636 38.5714-0.44194-1.0102h-7.513l-6.566 6.3134"/>
  <path d="m3.5636 33.2014v1.5152l-1.7559 1.0138v1.2591l1.3335 0.76992h1.0537l0.7449-0.43007v-1.792h0.58093"/>
  <path d="m2.8636 37.3114-1.2294 2.1294 2.2012 1.2708v4.1759"/>
  <path d="m3.5636 40.6514 1.9256 1.9256h3.3146l2.061-1.1899 4.1156 2.3762"/>
  <path d="m11.3936 35.6714v2.0203l-0.78692 0.45432v6.6167"/>
  <path d="m8.2936 40.4714h5.3033v-1.1364"/>
  <path d="m5.1436 62.8614v-7.5893"/>
  <path d="m11.5636 62.8214v-6.7411"/>
  <path d="m0.5436 56.1714 1.3805-0.3699 2.7409-2.7409v-1.7999"/>
  <path d="m4.5636 53.2214h2.5446l1.6695 2.8916 1.5231-2.6381h0.736v-1.816"/>
  <path d="m14.6936 55.5014h-1.1161l-2.433-2.2098"/>
  <path d="m8.3636 80.9314v-10.922"/>
  <path d="m1.4136 74.3114 1.389-1.2627h12.627"/>
  <path d="m5.5236 69.8214h3.5987l1.1364-1.1364"/>
  <path d="m7.6036 98.4214v-11.932h-3.1567v1.0733"/>
  <path d="m7.6536 98.4214v-11.932h3.1567v1.0733"/>
  <path d="m4.5136 89.5814h6.124"/>
  <path d="m3.5636 91.5414h1.5152"/>
  <path d="m9.0536 91.5414h1.5152"/>
  <path d="m1.4836 94.8214v-1.1996h13.574"/>
  <path d="m7.7336 115.6014v-3.8196l4.7982-4.7982v-2.4622l-1.1471-0.30737h-1.473v2.012h0.72605"/>
  <path d="m14.6436 113.5814-8.2391-6.3135v-2.5885l-1.0891-1.0891h-2.9515"/>
  <path d="m2.8036 107.6414 2.0677-2.0677"/>
  <path d="m4.6036 110.4214 0.88388-0.88388"/>
  <path d="m12.9336 112.3414h-9.4702"/>
  <path d="m1.3836 113.5814h2.3991v-2.0834"/>
 </g>
</svg>
