<?xml version="1.0" encoding="UTF-8" standalone="no"?>
<svg
   xmlns:dc="http://purl.org/dc/elements/1.1/"
   xmlns:cc="http://creativecommons.org/ns#"
   xmlns:rdf="http://www.w3.org/1999/02/22-rdf-syntax-ns#"
   xmlns:svg="http://www.w3.org/2000/svg"
   xmlns="http://www.w3.org/2000/svg"
   xmlns:sodipodi="http://sodipodi.sourceforge.net/DTD/sodipodi-0.dtd"
   xmlns:inkscape="http://www.inkscape.org/namespaces/inkscape"
   height="32.625mm"
   width="4.3563mm"
   version="1.1"
   viewBox="0 0 15.435705 115.59903"
   id="svg4676"
   inkscape:version="0.91 r13725"
   sodipodi:docname="side1.svg">
  <metadata
     id="metadata4754">
    <rdf:RDF>
      <cc:Work
         rdf:about="">
        <dc:format>image/svg+xml</dc:format>
        <dc:type
           rdf:resource="http://purl.org/dc/dcmitype/StillImage" />
      </cc:Work>
    </rdf:RDF>
  </metadata>
  <defs
     id="defs4752" />
  <sodipodi:namedview
     pagecolor="#ffffff"
     bordercolor="#666666"
     borderopacity="1"
     objecttolerance="10"
     gridtolerance="10"
     guidetolerance="10"
     inkscape:pageopacity="0"
     inkscape:pageshadow="2"
     inkscape:window-width="1600"
     inkscape:window-height="835"
     id="namedview4750"
     showgrid="false"
     inkscape:zoom="5.6487697"
     inkscape:cx="7.7178541"
     inkscape:cy="57.800197"
     inkscape:window-x="0"
     inkscape:window-y="0"
     inkscape:window-maximized="1"
     inkscape:current-layer="svg4676" />
  <g
     stroke="#003f07"
     stroke-width="1px"
     fill="none"
     id="g4678">
    <path
       d="m0.5436 1.7514 1.0714-1.25h12.768v1.6071"
       id="path4680" />
    <path
       d="m8.6636 0.5014v5.3571l1.7259 0.99646"
       id="path4682" />
    <path
       d="m6.3436 0.6814v2.8572"
       id="path4684" />
    <path
       d="m3.9336 6.5714 1.5179-0.80357v-1.9643"
       id="path4686" />
    <path
       d="m12.8636 3.4414h-10.446v5.3571h10.446z"
       id="path4688" />
    <path
       d="m6.4336 16.5714h1.25v4.8214l-6.6071 5.8036"
       id="path4690" />
    <path
       d="m14.2036 19.0714h-12.679"
       id="path4692" />
    <path
       d="m6.6136 22.5514h4.0179v1.6964l-3.3036 3.3036"
       id="path4694" />
    <path
       d="m9.6836 33.0214-0.44194 2.7779h2.0203l1.0733-1.5152"
       id="path4696" />
    <path
       d="m14.8636 38.5714-0.44194-1.0102h-7.513l-6.566 6.3134"
       id="path4698" />
    <path
       d="m3.5636 33.2014v1.5152l-1.7559 1.0138v1.2591l1.3335 0.76992h1.0537l0.7449-0.43007v-1.792h0.58093"
       id="path4700" />
    <path
       d="m2.8636 37.3114-1.2294 2.1294 2.2012 1.2708v4.1759"
       id="path4702" />
    <path
       d="m3.5636 40.6514 1.9256 1.9256h3.3146l2.061-1.1899 4.1156 2.3762"
       id="path4704" />
    <path
       d="m11.3936 35.6714v2.0203l-0.78692 0.45432v6.6167"
       id="path4706" />
    <path
       d="m8.2936 40.4714h5.3033v-1.1364"
       id="path4708" />
    <path
       d="m5.1436 62.8614v-7.5893"
       id="path4710" />
    <path
       d="m11.5636 62.8214v-6.7411"
       id="path4712" />
    <path
       d="m0.5436 56.1714 1.3805-0.3699 2.7409-2.7409v-1.7999"
       id="path4714" />
    <path
       d="m4.5636 53.2214h2.5446l1.6695 2.8916 1.5231-2.6381h0.736v-1.816"
       id="path4716" />
    <path
       d="m14.6936 55.5014h-1.1161l-2.433-2.2098"
       id="path4718" />
    <path
       d="m8.3636 80.9314v-10.922"
       id="path4720" />
    <path
       d="m1.4136 74.3114 1.389-1.2627h12.627"
       id="path4722" />
    <path
       d="m5.5236 69.8214h3.5987l1.1364-1.1364"
       id="path4724" />
    <path
       d="m7.6036 98.4214v-11.932h-3.1567v1.0733"
       id="path4726" />
    <path
       d="m7.6536 98.4214v-11.932h3.1567v1.0733"
       id="path4728" />
    <path
       d="m4.5136 89.5814h6.124"
       id="path4730" />
    <path
       d="m3.5636 91.5414h1.5152"
       id="path4732" />
    <path
       d="m9.0536 91.5414h1.5152"
       id="path4734" />
    <path
       d="m1.4836 94.8214v-1.1996h13.574"
       id="path4736" />
    <path
       d="m7.7336 115.6014v-3.8196l4.7982-4.7982v-2.4622l-1.1471-0.30737h-1.473v2.012h0.72605"
       id="path4738" />
    <path
       d="m14.6436 113.5814-8.2391-6.3135v-2.5885l-1.0891-1.0891h-2.9515"
       id="path4740" />
    <path
       d="m2.8036 107.6414 2.0677-2.0677"
       id="path4742" />
    <path
       d="m4.6036 110.4214 0.88388-0.88388"
       id="path4744" />
    <path
       d="m12.9336 112.3414h-9.4702"
       id="path4746" />
    <path
       d="m1.3836 113.5814h2.3991v-2.0834"
       id="path4748" />
  </g>
  <path
     style="fill:#ffffff"
     d="m 2.0174978,6.1252276 0,-3.0980197 1.9473267,0 1.9473267,0 0,-1.0621782 0,-1.06217823 -2.0472706,0 -2.0472706,0 L 1.3664592,1.4390137 C 1.0099903,1.8626529 0.86377772,1.9324093 0.66976943,1.7713967 0.29587881,1.4610951 0.36956135,1.2023233 1.0080049,0.58351942 l 0.5837744,-0.56581645 6.5859284,0 6.5859283,0 0,0.97366335 c 0,0.92055448 -0.02414,0.97366338 -0.442574,0.97366338 -0.373729,0 -0.442574,-0.082614 -0.442574,-0.5310891 l 0,-0.53108913 -2.389901,0 -2.3899012,0 0,1.06217823 0,1.0621782 2.1243562,0 2.124357,0 0,3.0980197 0,3.0980197 -5.6649508,0 -5.6649504,0 0,-3.0980197 z m 10.4447522,0 0,-2.2128712 -1.681782,0 -1.6817822,0 0,0.8815505 c 0,0.8509448 0.024702,0.8941526 0.711499,1.2445303 C 10.43012,6.3547045 10.497665,6.4462963 10.335045,6.7501539 10.101419,7.1866878 10.153847,7.1925563 9.1013288,6.6120593 L 8.2186384,6.1252276 8.2160879,5.018792 l -0.00255,-1.1064356 -1.1506931,0 -1.150693,0 0,1.0591959 0,1.059196 -0.8683337,0.4400179 C 4.2961168,6.8496549 4.1608511,6.8726516 4.0701541,6.6362994 3.9016651,6.1972238 3.9357451,6.1302283 4.4959136,5.7993285 4.959263,5.5256215 5.0270027,5.3852736 5.0270027,4.6989815 l 0,-0.7866251 -1.0621782,0 -1.0621782,0 0,2.2128712 0,2.2128712 4.7798019,0 4.7798018,0 0,-2.2128712 z m -4.2487127,-4.1601979 0,-1.06217823 -0.7081188,0 -0.7081188,0 0,1.06217823 0,1.0621782 0.7081188,0 0.7081188,0 0,-1.0621782 z"
     id="path4756"
     inkscape:connector-curvature="0"
     transform="translate(0,-6.7138656e-4)" />
  <path
     style="fill:#ffffff"
     d="m 7.3565344,27.402705 c -0.14788,-0.178185 0.153478,-0.57555 1.3060463,-1.722131 1.2707442,-1.264143 1.4982833,-1.57847 1.4982833,-2.069755 l 0,-0.579255 -1.8699145,0 -1.8699146,0 -2.5051963,2.212923 C 1.7123667,27.190886 1.3793175,27.426085 1.1505565,27.197324 0.81289625,26.859664 0.77067053,26.904684 4.4062094,23.72621 l 2.9206463,-2.553458 7.665e-4,-0.840891 7.666e-4,-0.840891 -2.8324752,0 -2.8324752,0 0,-0.442574 0,-0.442575 2.8324752,0 2.8324752,0 0,-0.796633 c 0,-0.731723 -0.036062,-0.796634 -0.4425743,-0.796634 -0.3540594,0 -0.4425742,-0.08852 -0.4425742,-0.442574 0,-0.406513 0.064911,-0.442574 0.7966336,-0.442574 l 0.7966337,0 0,1.239208 0,1.239207 3.0095044,0 3.009505,0 0,0.442575 0,0.442574 -3.009505,0 -3.0095044,0 0,1.086919 c 0,0.827552 -0.073927,1.143038 -0.309802,1.322093 -0.2641182,0.200494 -0.042226,0.236003 1.5047524,0.240803 l 1.814554,0.0056 0,1.109932 0,1.109932 -1.6408505,1.634029 c -0.902468,0.898715 -1.6893473,1.634028 -1.7486206,1.634028 -0.059273,0 -0.1942762,-0.104234 -0.3000065,-0.231631 z"
     id="path4758"
     inkscape:connector-curvature="0"
     transform="translate(0,-6.7138656e-4)" />
  <path
     style="fill:#ffffff"
     d="m 3.3961212,43.202017 -0.050901,-1.6042 -1.3527462,1.247197 C 0.81488259,43.930724 0.61042349,44.056902 0.41340363,43.819508 0.22048781,43.587059 0.39404019,43.338422 1.5891201,42.13514 3.1173502,40.596421 3.106414,40.708331 1.7962107,40.01597 1.4310869,39.823024 1.1323493,39.626989 1.1323493,39.580335 c 0,-0.04665 0.2190742,-0.489256 0.4868317,-0.98356 L 2.1060126,37.698038 1.7076958,37.424396 C 1.3913637,37.207078 1.309416,36.98212 1.309559,36.331456 c 1.755e-4,-0.79877 0.022354,-0.831752 0.8851485,-1.316342 0.7942864,-0.446112 0.8849685,-0.559488 0.8849685,-1.106436 0,-0.531998 0.056208,-0.609392 0.4425742,-0.609392 0.4099888,0 0.442561,0.06191 0.4423942,0.840892 -1.765e-4,0.824681 -0.017239,0.850472 -0.8851485,1.337934 -1.0671056,0.599342 -1.1755427,1.106597 -0.3384136,1.583056 0.5689254,0.323808 1.0030616,0.383373 1.474808,0.202346 0.2115098,-0.08116 0.2800233,-0.362704 0.2800233,-1.150693 0,-0.994767 0.020563,-1.043238 0.4425742,-1.043238 0.4294325,0 0.4425743,0.03637 0.4425743,1.22477 0,1.208308 -0.00831,1.229906 -0.6183616,1.606938 -0.4052843,0.250479 -0.8355532,0.363456 -1.2486632,0.327865 -0.5407464,-0.04659 -0.6799167,0.02406 -0.9795016,0.49722 l -0.3492003,0.551524 0.634319,0.374258 c 0.3488755,0.205841 0.6920874,0.374257 0.762693,0.374257 0.070606,0 0.8130243,-0.634694 1.6498191,-1.41043 l 1.5214449,-1.410431 2.101943,-0.05006 2.1019436,-0.05007 0,-0.442574 c 0,-0.419659 -0.05776,-0.445316 -1.115609,-0.495517 -0.9509132,-0.04513 -1.103384,-0.0974 -1.0328017,-0.35406 0.045544,-0.165614 0.1338727,-0.699433 0.1962863,-1.186265 0.1703185,-1.328497 0.2524373,-1.504752 0.7010753,-1.504752 0.3834871,0 0.3985081,0.04325 0.2613247,0.752376 -0.2725608,1.408926 -0.2321743,1.54901 0.4465804,1.54901 0.485923,0 0.687085,-0.11518 1.004849,-0.575347 0.218515,-0.31644 0.416275,-0.601716 0.439467,-0.633947 0.02319,-0.03223 0.209026,0.0307 0.412965,0.139845 l 0.370797,0.198445 -0.44415,0.653626 c -0.279946,0.411978 -0.444151,0.900229 -0.444151,1.320651 l 0,0.667024 1.483275,0 1.483275,0 0.226757,0.547439 c 0.189323,0.457066 0.185562,0.573518 -0.02278,0.705408 -0.367971,0.232943 -0.48225,0.20146 -0.692111,-0.190669 -0.153003,-0.285889 -0.370669,-0.354059 -1.130505,-0.354059 -0.517559,0 -1.191895,0.08746 -1.498524,0.194347 -0.523073,0.182345 -0.557506,0.247946 -0.557506,1.062178 l 0,0.867831 1.062179,0 c 0.826138,0 1.062178,-0.05901 1.062178,-0.265545 0,-0.165227 0.167194,-0.265544 0.442574,-0.265544 0.397592,0 0.442574,0.07127 0.442574,0.701226 l 0,0.701227 -1.519257,0.05115 -1.519257,0.05115 1.965719,1.12963 c 1.081145,0.621297 1.996737,1.179819 2.034648,1.241161 0.03791,0.06134 -0.02533,0.240443 -0.140545,0.398003 -0.186211,0.254658 -0.405643,0.172936 -1.975886,-0.735875 l -1.766412,-1.022347 -0.0517,1.309269 c -0.0497,1.258534 -0.06856,1.309268 -0.486831,1.309268 -0.417661,0 -0.435128,-0.04633 -0.435128,-1.154291 l 0,-1.154291 -0.7010663,0.357658 c -0.5613014,0.286354 -1.044645,0.357657 -2.4244715,0.357657 -1.6290914,0 -1.7505773,-0.02603 -2.2199238,-0.475695 l -0.4965185,-0.475695 0,1.360844 c 0,1.328016 -0.010516,1.360843 -0.435931,1.360843 -0.4274059,0 -0.4369265,-0.03137 -0.4868317,-1.6042 z M 9.4084877,41.75325 c 1.0256673,-0.543256 0.9785913,-0.841686 -0.1327722,-0.841686 -0.8261387,0 -0.8851485,-0.02951 -0.8851485,-0.442575 0,-0.413069 0.05901,-0.442574 0.8851485,-0.442574 l 0.8851485,0 0,-1.062178 0,-1.062178 -1.5282944,0 -1.5282942,0 -1.4366421,1.408026 -1.436642,1.408025 0.699478,0.716331 0.6994781,0.71633 1.5130821,4.96e-4 c 1.2291216,4.07e-4 1.6542807,-0.0743 2.2654582,-0.398013 l 0,-4e-6 z"
     id="path4760"
     inkscape:connector-curvature="0"
     transform="translate(0,-6.7138656e-4)" />
  <path
     style="fill:#ffffff"
     d="M 8.6199808,56.626814 C 8.5240541,56.50298 8.0986898,55.784271 7.6747267,55.029682 l -0.7708422,-1.37198 -1.1558115,0 -1.1558115,0 -1.3316392,1.321989 c -1.0814999,1.073663 -1.4480277,1.33138 -1.9512433,1.37198 -0.50999251,0.04115 -0.61960395,-0.01003 -0.61960395,-0.289316 0,-0.22167 0.18412724,-0.397528 0.53108905,-0.507237 0.292099,-0.09236 1.1086485,-0.734313 1.8145545,-1.426559 1.1968418,-1.173682 1.2834653,-1.309708 1.2834653,-2.015436 0,-0.638787 0.055214,-0.756807 0.3540594,-0.756807 0.2950495,0 0.3540594,0.11802 0.3540594,0.708119 l 0,0.708118 1.1461828,0 1.1461829,0 0.6618206,1.150693 c 0.3640012,0.632882 0.7186694,1.150693 0.7881514,1.150693 0.069482,0 0.3717916,-0.42902 0.6717991,-0.953378 0.3000074,-0.524359 0.7041705,-0.994881 0.8981405,-1.045605 0.269676,-0.07052 0.352673,-0.241942 0.352673,-0.728403 0,-0.518158 0.06568,-0.636178 0.354059,-0.636178 0.283421,0 0.35406,0.11802 0.35406,0.591544 0,0.495886 0.183598,0.767843 1.13537,1.681782 0.79354,0.761996 1.273232,1.090238 1.593268,1.090238 0.370403,0 0.457896,0.08457 0.457896,0.442575 0,0.376442 -0.08161,0.442574 -0.546155,0.442574 -0.416711,0 -0.829418,-0.251749 -1.741297,-1.062178 -0.657327,-0.584198 -1.320829,-1.062178 -1.474449,-1.062178 -0.161382,0 -0.558991,0.504521 -0.941732,1.19495 -0.9769851,1.762393 -1.056794,1.863316 -1.2629922,1.597132 z"
     id="path4762"
     inkscape:connector-curvature="0"
     transform="translate(0,-6.7138656e-4)" />
  <path
     style="fill:#ffffff"
     d="m 4.6729433,59.145623 0,-3.717624 0.4425742,0 0.4425743,0 0,3.717624 0,3.717623 -0.4425743,0 -0.4425742,0 0,-3.717623 z"
     id="path4764"
     inkscape:connector-curvature="0"
     transform="translate(0,-6.7138656e-4)" />
  <path
     style="fill:#ffffff"
     d="m 11.223042,59.411167 c 0,-3.15703 0.01276,-3.275049 0.35406,-3.275049 0.3413,0 0.354059,0.118019 0.354059,3.275049 0,3.15703 -0.01276,3.27505 -0.354059,3.27505 -0.341301,0 -0.35406,-0.11802 -0.35406,-3.27505 z"
     id="path4766"
     inkscape:connector-curvature="0"
     transform="translate(0,-6.7138656e-4)" />
  <path
     style="fill:#ffffff"
     d="m 7.8594779,77.202652 0,-3.717624 -2.4380807,0 -2.4380806,0 -0.6407165,0.528133 C 1.7792346,74.477534 1.6747837,74.50864 1.4774074,74.270816 1.2888373,74.043603 1.3623016,73.888333 1.9366867,73.300109 l 0.6837557,-0.700229 2.6195178,0 2.6195177,0 0,-1.150693 0,-1.150693 -1.1506931,0 c -1.1093861,0 -1.150693,-0.01589 -1.150693,-0.442575 0,-0.441647 0.0036,-0.442574 1.7163527,-0.442574 1.5965781,0 1.7490907,-0.03137 2.1854836,-0.449456 0.4207559,-0.403109 0.4930656,-0.420616 0.7012449,-0.169776 0.19805,0.238636 0.145012,0.369547 -0.3613992,0.892031 -0.3264321,0.336792 -0.6973809,0.61235 -0.8243303,0.61235 -0.1660629,0 -0.2308171,0.322819 -0.2308171,1.150693 l 0,1.150693 3.2750496,0 3.275049,0 0,0.442574 0,0.442574 -3.275049,0 -3.2750496,0 0,3.717624 0,3.717624 -0.4425743,0 -0.4425742,0 0,-3.717624 z"
     id="path4768"
     inkscape:connector-curvature="0"
     transform="translate(0,-6.7138656e-4)" />
  <path
     style="fill:#ffffff"
     d="m 7.1513591,96.233345 0,-2.212872 -2.6554455,0 c -2.5374257,0 -2.6554455,0.01574 -2.6554455,0.35406 0,0.236039 -0.1180198,0.354059 -0.3540594,0.354059 -0.3016062,0 -0.3540594,-0.11802 -0.3540594,-0.796634 l 0,-0.796633 3.0095049,0 3.0095049,0 0,-1.593267 0,-1.593268 -1.2392079,0 c -1.1211881,0 -1.2392079,-0.03372 -1.2392079,-0.354059 0,-0.32034 0.1180198,-0.35406 1.2392079,-0.35406 l 1.2392079,0 0,-1.150693 0,-1.150693 -1.1506931,0 c -0.9048184,0 -1.150693,0.05674 -1.150693,0.265545 0,0.165228 -0.1671947,0.265544 -0.4425743,0.265544 -0.3983168,0 -0.4425742,-0.07081 -0.4425742,-0.708118 l 0,-0.708119 3.6291088,0 3.6291087,0 0,0.708119 c 0,0.637307 -0.04426,0.708118 -0.442574,0.708118 -0.27538,0 -0.442574,-0.100316 -0.442574,-0.265544 0,-0.209003 -0.246814,-0.265545 -1.1591407,-0.265545 l -1.1591406,0 0.052705,1.106436 0.052705,1.106436 1.1949505,0.05235 c 1.0497621,0.04599 1.1949501,0.09438 1.1949501,0.398316 0,0.310325 -0.127677,0.345971 -1.2392075,0.345971 l -1.2392079,0 0,1.593268 0,1.593267 3.4520794,0 3.452079,0 0,0.442574 0,0.442574 -3.452079,0 -3.4520794,0 0,2.212872 0,2.212871 -0.4425743,0 -0.4425742,0 0,-2.212871 z"
     id="path4770"
     inkscape:connector-curvature="0"
     transform="translate(0,-6.7138656e-4)" />
  <path
     style="fill:#ffffff"
     d="m 3.6107651,91.542058 c 0,-0.29505 0.1180198,-0.35406 0.7081188,-0.35406 0.590099,0 0.7081188,0.05901 0.7081188,0.35406 0,0.295049 -0.1180198,0.354059 -0.7081188,0.354059 -0.590099,0 -0.7081188,-0.05901 -0.7081188,-0.354059 z"
     id="path4772"
     inkscape:connector-curvature="0"
     transform="translate(0,-6.7138656e-4)" />
  <path
     style="fill:#ffffff"
     d="m 9.0986858,91.542058 c 0,-0.29505 0.1180198,-0.35406 0.7081188,-0.35406 0.5900994,0 0.7081184,0.05901 0.7081184,0.35406 0,0.295049 -0.118019,0.354059 -0.7081184,0.354059 -0.590099,0 -0.7081188,-0.05901 -0.7081188,-0.354059 z"
     id="path4774"
     inkscape:connector-curvature="0"
     transform="translate(0,-6.7138656e-4)" />
  <path
     style="fill:#ffffff"
     d="m 7.3283888,114.11334 0,-1.32772 -1.5932673,0 -1.5932673,0 0,0.61961 0,0.6196 -1.3277228,0 c -1.2982177,0 -1.3277227,-0.01 -1.3277227,-0.44257 0,-0.41844 0.053109,-0.44258 0.9736633,-0.44258 l 0.9736634,0 0,-0.79663 c 0,-0.67862 0.052453,-0.79664 0.3540594,-0.79664 0.1947327,0 0.3540594,0.0797 0.3540594,0.17703 0,0.10606 0.6210278,0.16902 1.5490099,0.15704 l 1.5490098,-0.02 0.9358636,-1.01958 0.9358635,-1.01958 -1.5997248,-1.1911 -1.599725,-1.1911 0,-1.36758 c 0,-1.20062 -0.050021,-1.41457 -0.4097266,-1.7525 -0.3473034,-0.32627 -0.617014,-0.38491 -1.770297,-0.38491 -1.2425506,0 -1.3605704,-0.0307 -1.3605704,-0.35406 0,-0.32723 0.1180198,-0.35406 1.5573395,-0.35406 l 1.5573394,0 0.6555318,0.67132 c 0.631495,0.64671 0.6555318,0.71744 0.6555318,1.92884 l 0,1.25752 1.4528574,1.08383 1.4528574,1.08384 1.2025885,-1.19337 1.202588,-1.19338 0,-1.00373 c 0,-1.11096 -0.105106,-1.21863 -1.189546,-1.21863 l -0.629499,0 0.114435,0.97366 0.114435,0.97366 -0.5326352,0 -0.5326356,0 0,-1.41624 0,-1.41623 0.8716428,0 c 0.479404,0 1.276037,0.0933 1.770297,0.20743 l 0.898654,0.20744 0,1.42617 0,1.42617 -1.343694,1.35162 -1.343694,1.35163 2.230029,1.71548 c 1.998345,1.53725 2.210438,1.75208 2.041462,2.06781 -0.182899,0.34175 -0.210589,0.33615 -0.92121,-0.18645 -0.729734,-0.53665 -0.741994,-0.53879 -3.087669,-0.53879 l -2.3550257,0 0,1.32772 c 0,1.29822 -0.00984,1.32773 -0.4425743,1.32773 -0.4327392,0 -0.4425742,-0.0295 -0.4425742,-1.32773 z m 3.6291092,-2.83761 c -1.0747433,-0.92802 -1.2652104,-0.93732 -2.1000591,-0.10247 l -0.7272097,0.72721 1.7676936,-0.007 1.7676932,-0.007 -0.708118,-0.61145 z"
     id="path4776"
     inkscape:connector-curvature="0"
     transform="translate(0,-6.7138656e-4)" />
  <path
     style="fill:#ffffff"
     d="m 2.904465,107.56544 c -0.2065703,-0.24891 -0.113959,-0.41083 0.7151473,-1.25036 0.8498801,-0.86057 0.9812661,-0.93561 1.2200533,-0.69682 0.2387872,0.23878 0.161774,0.37343 -0.7151473,1.25035 -0.8779665,0.87797 -1.0080548,0.95227 -1.2200533,0.69683 z"
     id="path4778"
     inkscape:connector-curvature="0"
     transform="translate(0,-6.7138656e-4)" />
  <path
     style="fill:#ffffff"
     d="m 4.6146164,110.34056 c -0.2773071,-0.30642 -0.270203,-0.34968 0.1171827,-0.71361 0.399507,-0.37532 0.4216058,-0.37723 0.7075898,-0.0612 0.2773071,0.30642 0.270203,0.34968 -0.1171827,0.71361 -0.399507,0.37532 -0.4216058,0.37723 -0.7075898,0.0612 z"
     id="path4780"
     inkscape:connector-curvature="0"
     transform="translate(0,-6.7138656e-4)" />
</svg>
